<?xml version="1.0" standalone="no"?>
<!DOCTYPE svg PUBLIC "-//W3C//DTD SVG 20010904//EN"
 "http://www.w3.org/TR/2001/REC-SVG-20010904/DTD/svg10.dtd">
<svg version="1.0" xmlns="http://www.w3.org/2000/svg"
 width="261.000000pt" height="267.000000pt" viewBox="0 0 261.000000 267.000000"
 preserveAspectRatio="xMidYMid meet">
<metadata>
Created by potrace 1.15, written by Peter Selinger 2001-2017
</metadata>
<g transform="translate(0.000000,267.000000) scale(0.100000,-0.100000)"
fill="#000000" stroke="none">
<path d="M0 1335 l0 -1335 1305 0 1305 0 0 1335 0 1335 -1305 0 -1305 0 0
-1335z m1472 1127 c176 -48 307 -123 433 -247 197 -193 282 -384 292 -656 8
-192 -17 -311 -100 -477 -118 -239 -355 -428 -623 -498 -84 -22 -128 -27 -291
-31 l-193 -6 0 -178 0 -179 -125 0 -125 0 0 309 0 310 323 3 c308 3 325 5 387
27 197 71 340 194 424 365 89 179 98 388 26 578 -30 79 -107 193 -172 255
-159 149 -323 202 -625 203 l-113 0 0 -317 0 -318 200 200 200 200 90 -90 90
-90 -152 -152 -153 -153 150 -150 150 -150 -90 -90 -90 -90 -150 150 -150 150
-172 -172 -173 -173 0 749 0 748 328 -5 c292 -4 335 -6 404 -25z"/>
</g>
</svg>
